<svg xmlns="http://www.w3.org/2000/svg" version="1.1" xmlns:xlink="http://www.w3.org/1999/xlink" xmlns:svgjs="http://svgjs.dev/svgjs" viewBox="0 0 800 800"><defs><symbol id="bbburst-shape-7" viewBox="0 0 139 124"><path fill-rule="evenodd" clip-rule="evenodd" d="M70.1641 15.0917C54.6093.764854 37.8293-2.10782 24.4032 2.82615 10.3804 7.97941.763366 21.4591 1.00047 37.0608c.1068 7.0273 2.86132 13.7317 7.0039 20.2001C12.1442 63.7249 17.853 70.2322 24.25 76.9024c3.8209 3.9842 7.8871 8.0312 12.0767 12.201h.0001c10.0335 9.9862 20.7748 20.6766 30.5497 32.8956 1.38 1.725 3.8972 2.005 5.6223.624.6706-.536 1.1228-1.244 1.3439-2.011 9.5768-11.748 20.0328-22.0735 29.8163-31.7351 4.19-4.1373 8.256-8.1528 12.078-12.1062 6.396-6.6176 12.106-13.0752 16.247-19.4911 4.144-6.4196 6.905-13.0811 7.012-20.0691.237-15.5124-9.399-28.8902-23.411-33.99923-13.32-4.85681-29.9542-2.08621-45.4209 11.88043Zm-3.7351 7.4919C52.1278 8.44857 37.6826 6.46918 27.1626 10.3352 16.2859 14.3323 8.8148 24.7824 8.99955 36.9392c.07575 4.9844 2.03755 10.2234 5.74165 16.0072 3.707 5.7881 8.9752 11.8418 15.2827 18.4187 3.5798 3.7328 7.4978 7.6329 11.6 11.7163 9.0476 9.0063 18.9911 18.9046 28.1786 29.8666 9.2999-11.068 19.4036-21.0473 28.5839-30.1144l.0007-.0006c4.1019-4.0508 8.0189-7.9196 11.5979-11.6222 6.307-6.5252 11.573-12.5298 15.278-18.2697 3.703-5.7362 5.658-10.924 5.734-15.8531.184-12.0276-7.267-22.3914-18.153-26.3608-10.71-3.90518-25.4722-1.80041-40.0023 12.867-1.5547 1.5694-4.0874 1.5813-5.6568.0265-.3146-.3116-.5666-.6625-.7559-1.0371Z"></path></symbol><symbol id="bbburst-shape-8" viewBox="0 0 87 168"><path d="m12 12 31.2546 18.0749c16.4102 9.4902 20.014 31.6325 7.4603 45.8369L36.3296 92.1884c-12.5684 14.2206-8.9394 36.3916 7.5068 45.8636L75 156" stroke-width="14" stroke-linecap="round" stroke-linejoin="round"></path></symbol><symbol id="bbburst-shape-9" viewBox="0 0 182 172"><path d="M13.5809 69.845 91 13.5967l77.419 56.2483-29.571 91.012H43.1524L13.5809 69.845Z" stroke-width="22"></path></symbol><symbol id="bbburst-shape-10" viewBox="0 0 145 145"><circle cx="72.5" cy="72.5" r="61.5" fill="none" stroke-width="22"></circle></symbol><symbol id="bbburst-shape-11" viewBox="0 0 194 167"><path d="M10.398 161 97 11l86.603 150H10.397Z" stroke-width="11"></path></symbol><symbol id="bbburst-shape-12" viewBox="0 0 170 151"><path d="M69.3728 54.2122 85 10.0031l15.627 44.2091c1.413 3.9958 5.19 6.6672 9.428 6.6673h49.312l-39.149 26.1447c-3.803 2.5401-5.399 7.3367-3.875 11.6488l15.179 42.94-40.9683-27.36c-3.3621-2.245-7.7453-2.245-11.1074 0l-40.9682 27.36 15.1785-42.94c1.5243-4.3121-.0712-9.1087-3.8746-11.6488L10.6333 60.8795h49.3112c4.2381-.0001 8.0159-2.6715 9.4283-6.6673Z" stroke-width="12"></path></symbol><symbol id="bbburst-shape-13" viewBox="0 0 159 159"><path stroke-width="22" d="M11 11h137v137H11z"></path></symbol><symbol id="bbburst-shape-14" viewBox="0 0 185 109"><path d="M168 16.5C168 58.1975 134.197 92 92.5 92 50.8025 92 17 58.1975 17 16.5" stroke-width="33" stroke-linecap="round"></path></symbol></defs><use xlink:href="#bbburst-shape-12" width="36.8256697581759" opacity="0.6495706351516282" transform="matrix(0.9656622073514387,0.25980088778360055,-0.25980088778360055,0.9656622073514387,623.7486040206993,85.9306358902266)" fill="none" stroke="#2c2891"></use><use xlink:href="#bbburst-shape-14" width="28.939300459323896" opacity="0.838300144566788" transform="matrix(0.9192181919720563,0.3937485435498446,-0.3937485435498446,0.9192181919720563,509.3646623354347,90.54492478109069)" fill="none" stroke="#00a19d"></use><use xlink:href="#bbburst-shape-13" width="43.91292856286701" opacity="0.42682003977768845" transform="matrix(0.7124186211689144,-0.7017547350832646,0.7017547350832646,0.7124186211689144,128.16938594350034,-126.32287882080652)" fill="none" stroke="#00a19d"></use><use xlink:href="#bbburst-shape-11" width="38.65251160724003" opacity="0.40985675572409774" transform="matrix(0.9940480932420858,-0.10894213290446264,0.10894213290446264,0.9940480932420858,556.074845495036,154.32316507500673)" fill="none" stroke="#2c2891"></use><use xlink:href="#bbburst-shape-10" width="41.04623883919055" opacity="0.4319422229787675" transform="matrix(0.9963370869729227,0.08551262551407673,-0.08551262551407673,0.9963370869729227,548.7341760216492,-217.3746782687869)" fill="none" stroke="#ffa6d5"></use><use xlink:href="#bbburst-shape-7" width="48.956750250738736" opacity="-0.04890120535960918" transform="matrix(0.7144137625211565,0.6997234996199316,-0.6997234996199316,0.7144137625211565,1007.799344713135,-224.60356586143934)" fill="#2c2891"></use><use xlink:href="#bbburst-shape-8" width="33.67367385824745" opacity="0.3565075593388094" transform="matrix(0.7314936802813046,-0.6818482204336332,0.6818482204336332,0.7314936802813046,-139.17387920507286,-19.953440040907424)" fill="none" stroke="#ffa6d5"></use><use xlink:href="#bbburst-shape-11" width="34.635733632755645" opacity="0.6298079440143978" transform="matrix(0.9973813625491983,0.07232162636103115,-0.07232162636103115,0.9973813625491983,289.36089995735944,112.42954184358655)" fill="none" stroke="#00a19d"></use><use xlink:href="#bbburst-shape-11" width="26.048073066435524" opacity="0.9733497178753232" transform="matrix(0.8748527046445815,-0.4843890432039732,0.4843890432039732,0.8748527046445815,190.63351905445197,44.787382759707725)" fill="none" stroke="#ffa6d5"></use><use xlink:href="#bbburst-shape-9" width="44.728751477518" opacity="0.5679854105875903" transform="matrix(0.774296446259386,-0.632823050552116,0.632823050552116,0.774296446259386,-57.838514380092164,51.76608214068398)" fill="none" stroke="#ffbd9b"></use><use xlink:href="#bbburst-shape-14" width="51.373788038771" opacity="0.244572933564548" transform="matrix(0.7937284083899584,0.6082723187148528,-0.6082723187148528,0.7937284083899584,869.6135359649359,-166.9035849381639)" fill="none" stroke="#00a19d"></use><use xlink:href="#bbburst-shape-9" width="29.79741555345062" opacity="0.8413328842908308" transform="matrix(0.8920264329593147,-0.45198323298755355,0.45198323298755355,0.8920264329593147,273.6655930106409,72.00997852581094)" fill="none" stroke="#ff5c58"></use><use xlink:href="#bbburst-shape-14" width="35.94115458015754" opacity="0.39513505440119956" transform="matrix(0.8978485272076401,-0.4403044653317425,0.4403044653317425,0.8978485272076401,475.3046900673171,-1.276697004415098)" fill="none" stroke="#00a19d"></use><use xlink:href="#bbburst-shape-9" width="31.419147477565346" opacity="0.7889140723513032" transform="matrix(0.7140069003036269,-0.7001386622082847,0.7001386622082847,0.7140069003036269,13.635584660761765,128.15993418889627)" fill="none" stroke="#ffa6d5"></use><use xlink:href="#bbburst-shape-14" width="32.95391538726241" opacity="0.11032183772411064" transform="matrix(0.998055806606641,-0.062326614690413625,0.062326614690413625,0.998055806606641,170.90969574599413,-351.76995208245205)" fill="none" stroke="#ffa6d5"></use><use xlink:href="#bbburst-shape-9" width="29.164654268104055" opacity="0.32319707884893745" transform="matrix(0.7968372237490637,0.6041940407252331,-0.6041940407252331,0.7968372237490637,331.3062544611921,13.696939510161371)" fill="none" stroke="#ff5c58"></use><use xlink:href="#bbburst-shape-12" width="36.2839226279787" opacity="0.6546881725420226" transform="matrix(0.9987721655424603,0.04953949270656941,-0.04953949270656941,0.9987721655424603,292.23170400697944,-110.75924258022411)" fill="none" stroke="#2c2891"></use><use xlink:href="#bbburst-shape-7" width="52.13050336351236" opacity="0.20450698443691295" transform="matrix(0.9500477552150212,0.3121045703140203,-0.3121045703140203,0.9500477552150212,760.1877413239121,257.5301779086066)" fill="#ffbd9b"></use><use xlink:href="#bbburst-shape-12" width="44.20536478106228" opacity="0.1900256709019753" transform="matrix(0.8793227433563588,0.47622632541287235,-0.47622632541287235,0.8793227433563588,227.07295892281275,158.09825453104548)" fill="none" stroke="#ff5c58"></use><use xlink:href="#bbburst-shape-12" width="36.78492067840054" opacity="0.1944939349859942" transform="matrix(0.980954288703387,0.1942387280498722,-0.1942387280498722,0.980954288703387,97.25005323913939,-2.6985084577395924)" fill="none" stroke="#ff5c58"></use><use xlink:href="#bbburst-shape-10" width="34.881272364895224" opacity="0.8050035477626938" transform="matrix(0.8837017082527816,0.4680505216652531,-0.4680505216652531,0.8837017082527816,525.4435134224391,-36.14295485832929)" fill="none" stroke="#ff5c58"></use><use xlink:href="#bbburst-shape-12" width="49.47107341091343" opacity="0.36614014667071704" transform="matrix(0.9553491891745766,-0.2954791477303926,0.2954791477303926,0.9553491891745766,392.136332992298,276.8929010981814)" fill="none" stroke="#ffa6d5"></use><use xlink:href="#bbburst-shape-11" width="38.73537968851994" opacity="0.3453495344042935" transform="matrix(0.7142612196777839,0.6998792110531677,-0.6998792110531677,0.7142612196777839,557.6906896940433,-173.39057856400677)" fill="none" stroke="#ff5c58"></use><use xlink:href="#bbburst-shape-11" width="38.99018334309086" opacity="0.15993910550118684" transform="matrix(0.8744972615574733,0.4850304521661296,-0.4850304521661296,0.8744972615574733,920.3653154278134,-118.27339143201516)" fill="none" stroke="#00a19d"></use><use xlink:href="#bbburst-shape-14" width="44.77805200483296" opacity="0.2907181788539046" transform="matrix(0.784377276675064,-0.6202840380308122,0.6202840380308122,0.784377276675064,89.35786528579195,416.1721295360943)" fill="none" stroke="#ffa6d5"></use><use xlink:href="#bbburst-shape-12" width="42.40191824592828" opacity="0.626687339426102" transform="matrix(0.7327846179231685,-0.6804606555379936,0.6804606555379936,0.7327846179231685,65.62920051044006,282.65473176239567)" fill="none" stroke="#00a19d"></use><use xlink:href="#bbburst-shape-14" width="46.41502651117604" opacity="0.21313644069905524" transform="matrix(0.9490427240715462,-0.31514743833142456,0.31514743833142456,0.9490427240715462,310.53900831674486,376.961629787307)" fill="none" stroke="#ffa6d5"></use><use xlink:href="#bbburst-shape-9" width="45.31381145424275" opacity="0.48844356002882716" transform="matrix(0.971668163505198,-0.23634927550224405,0.23634927550224405,0.971668163505198,303.5608871281448,245.7043693983548)" fill="none" stroke="#2c2891"></use><use xlink:href="#bbburst-shape-7" width="26.215046195352798" opacity="0.8004078643039771" transform="matrix(0.9992102560250086,0.03973492487015399,-0.03973492487015399,0.9992102560250086,455.2307579511779,-73.07232381332653)" fill="#00a19d"></use><use xlink:href="#bbburst-shape-12" width="37.74881257332987" opacity="0.19341447907069864" transform="matrix(0.9678354518017466,0.2515840579919744,-0.2515840579919744,0.9678354518017466,258.28533723773796,293.57258189168647)" fill="none" stroke="#00a19d"></use><use xlink:href="#bbburst-shape-13" width="34.74102673294179" opacity="0.5786770371029939" transform="matrix(0.8871876190743924,0.4614088518452056,-0.4614088518452056,0.8871876190743924,668.8397662204175,198.3826907680389)" fill="none" stroke="#2c2891"></use><use xlink:href="#bbburst-shape-13" width="49.86222864213085" opacity="0.10510939663375463" transform="matrix(0.7963599887716704,0.6048229230804542,-0.6048229230804542,0.7963599887716704,821.2205857802652,416.38989736639417)" fill="none" stroke="#ffa6d5"></use><use xlink:href="#bbburst-shape-9" width="36.60319229118494" opacity="0.644259336307399" transform="matrix(0.7271926990549211,-0.6864333750927463,0.6864333750927463,0.7271926990549211,170.5600547166125,-27.46129273309421)" fill="none" stroke="#00a19d"></use><use xlink:href="#bbburst-shape-14" width="34.93470684981314" opacity="0.6108174202043274" transform="matrix(0.9751677789072026,0.22146738581830322,-0.22146738581830322,0.9751677789072026,301.81453964357166,49.279426278234155)" fill="none" stroke="#00a19d"></use><use xlink:href="#bbburst-shape-11" width="44.470112088073165" opacity="0.46165619327001783" transform="matrix(0.9165585013355597,-0.3999006296938189,0.3999006296938189,0.9165585013355597,56.24406361485805,-137.30272340432256)" fill="none" stroke="#ffa6d5"></use><use xlink:href="#bbburst-shape-7" width="56.14468140251342" opacity="-0.05106419536705076" transform="matrix(0.8695592897858555,-0.4938285548114027,0.4938285548114027,0.8695592897858555,519.9960681627133,392.7130984065157)" fill="#ff5c58"></use><use xlink:href="#bbburst-shape-8" width="48.42446759282745" opacity="0.20962944986935161" transform="matrix(0.7269560993243702,-0.6866839372339332,0.6866839372339332,0.7269560993243702,212.06439989360325,-214.17416950916635)" fill="none" stroke="#00a19d"></use><use xlink:href="#bbburst-shape-8" width="53.69927579412957" opacity="-0.05413278464201032" transform="matrix(0.9956725318693702,-0.09293120724943747,0.09293120724943747,0.9956725318693702,-0.34429382248987395,-330.1784086193687)" fill="none" stroke="#2c2891"></use><use xlink:href="#bbburst-shape-12" width="43.542697936103245" opacity="0.21003679174599987" transform="matrix(0.8319859994442238,-0.554796626457656,0.554796626457656,0.8319859994442238,128.80298437856,-274.89992862954017)" fill="none" stroke="#2c2891"></use><use xlink:href="#bbburst-shape-13" width="50.62609640099549" opacity="0.11594470460670048" transform="matrix(0.9999987909456304,-0.0015550264555534582,0.0015550264555534582,0.9999987909456304,20.259985222539495,-181.8575665189552)" fill="none" stroke="#00a19d"></use><use xlink:href="#bbburst-shape-10" width="47.56699695835958" opacity="0.08264883460314898" transform="matrix(0.9006509858676636,0.434543210343466,-0.434543210343466,0.9006509858676636,776.2397805608484,-317.4450411454541)" fill="none" stroke="#00a19d"></use><use xlink:href="#bbburst-shape-8" width="36.45867902067872" opacity="0.16008549229845648" transform="matrix(0.966261882141845,-0.25756159480733765,0.25756159480733765,0.966261882141845,625.685613958039,169.56483151082654)" fill="none" stroke="#00a19d"></use><use xlink:href="#bbburst-shape-8" width="52.66252664904748" opacity="0.21285072964724594" transform="matrix(0.7282845718543148,-0.6852748225339796,0.6852748225339796,0.7282845718543148,-140.63837451141663,-126.81826115984464)" fill="none" stroke="#00a19d"></use><use xlink:href="#bbburst-shape-11" width="34.87645777521186" opacity="0.7492163084349175" transform="matrix(0.8145124853895771,0.5801460257077471,-0.5801460257077471,0.8145124853895771,649.5194219343326,172.10739596711272)" fill="none" stroke="#ff5c58"></use><use xlink:href="#bbburst-shape-9" width="45.25372630492966" opacity="-0.06125082480743638" transform="matrix(0.7431810262970056,-0.6690903990882917,0.6690903990882917,0.7431810262970056,-208.0672136084968,469.0254887626189)" fill="none" stroke="#2c2891"></use><use xlink:href="#bbburst-shape-13" width="40.97599089529457" opacity="0.45295201048755307" transform="matrix(0.871544390301513,-0.4903166076464921,0.4903166076464921,0.871544390301513,426.752985392156,112.87414220001011)" fill="none" stroke="#ffa6d5"></use><use xlink:href="#bbburst-shape-8" width="52.43767275505611" opacity="0.3844741280991908" transform="matrix(0.9370759581379767,-0.34912554859218314,0.34912554859218314,0.9370759581379767,11.643270589565134,197.0623214935742)" fill="none" stroke="#2c2891"></use><use xlink:href="#bbburst-shape-13" width="42.57819138718882" opacity="0.6650573469717995" transform="matrix(0.7476401779986838,-0.6641040311894639,0.6641040311894639,0.7476401779986838,265.2800427057796,81.07748335835578)" fill="none" stroke="#00a19d"></use><use xlink:href="#bbburst-shape-12" width="48.690654223862104" opacity="0.4271593707184117" transform="matrix(0.7633421355910789,0.6459944148607253,-0.6459944148607253,0.7633421355910789,516.4723630179616,305.1925786970768)" fill="none" stroke="#ffa6d5"></use><use xlink:href="#bbburst-shape-7" width="45.47222934494597" opacity="0.4133147174547507" transform="matrix(0.9898307663317719,0.14224997020406424,-0.14224997020406424,0.9898307663317719,175.36393206227535,52.61956004157685)" fill="#00a19d"></use><use xlink:href="#bbburst-shape-12" width="53.55143668264661" opacity="0.07873283951624799" transform="matrix(0.8739881065794127,0.4859473115037607,-0.4859473115037607,0.8739881065794127,230.32233570616188,273.5086590117145)" fill="none" stroke="#ffa6d5"></use><use xlink:href="#bbburst-shape-8" width="39.5176773199893" opacity="0.21282518751034507" transform="matrix(0.888424875114108,-0.4590220487933904,0.4590220487933904,0.888424875114108,553.0633282881817,54.96906926480983)" fill="none" stroke="#2c2891"></use><use xlink:href="#bbburst-shape-8" width="46.39992214270336" opacity="0.48091064600357414" transform="matrix(0.7402202460184957,0.6723644751058147,-0.6723644751058147,0.7402202460184957,849.6580105894102,-35.80700507951332)" fill="none" stroke="#ffa6d5"></use><use xlink:href="#bbburst-shape-14" width="42.76316668876724" opacity="0.5832205784073186" transform="matrix(0.960070083864213,0.2797596004947159,-0.2797596004947159,0.960070083864213,446.0763392128031,-171.9561362582254)" fill="none" stroke="#ffbd9b"></use><use xlink:href="#bbburst-shape-14" width="30.256126242016386" opacity="0.14656869525686345" transform="matrix(0.9692256391802536,-0.24617404484557012,0.24617404484557012,0.9692256391802536,143.72350625146956,372.4394344349849)" fill="none" stroke="#2c2891"></use></svg>