<svg xmlns="http://www.w3.org/2000/svg" version="1.1" xmlns:xlink="http://www.w3.org/1999/xlink" xmlns:svgjs="http://svgjs.dev/svgjs" viewBox="0 0 1422 800" opacity="0.6"><defs><linearGradient x1="50%" y1="0%" x2="50%" y2="100%" id="oooscillate-grad"><stop stop-color="hsl(332, 87%, 70%)" stop-opacity="1" offset="0%"></stop><stop stop-color="hsl(184, 74%, 44%)" stop-opacity="1" offset="100%"></stop></linearGradient></defs><g stroke-width="2" stroke="url(#oooscillate-grad)" fill="none" stroke-linecap="round"><path d="M 0 686 Q 355.5 -100 711 400 Q 1066.5 900 1422 686" stroke-dasharray="90 13" opacity="0.33"></path><path d="M 0 637 Q 355.5 -100 711 400 Q 1066.5 900 1422 637" stroke-dasharray="110 69" opacity="0.58"></path><path d="M 0 588 Q 355.5 -100 711 400 Q 1066.5 900 1422 588" stroke-dasharray="16 67" opacity="0.91"></path><path d="M 0 539 Q 355.5 -100 711 400 Q 1066.5 900 1422 539" stroke-dasharray="16 85" opacity="0.40"></path><path d="M 0 490 Q 355.5 -100 711 400 Q 1066.5 900 1422 490" stroke-dasharray="68 50" opacity="0.66"></path><path d="M 0 441 Q 355.5 -100 711 400 Q 1066.5 900 1422 441" stroke-dasharray="95 75" opacity="0.11"></path><path d="M 0 392 Q 355.5 -100 711 400 Q 1066.5 900 1422 392" stroke-dasharray="97 25" opacity="0.56"></path><path d="M 0 343 Q 355.5 -100 711 400 Q 1066.5 900 1422 343" stroke-dasharray="89 31" opacity="0.33"></path><path d="M 0 294 Q 355.5 -100 711 400 Q 1066.5 900 1422 294" stroke-dasharray="89 17" opacity="0.27"></path><path d="M 0 245 Q 355.5 -100 711 400 Q 1066.5 900 1422 245" stroke-dasharray="27 23" opacity="0.74"></path><path d="M 0 196 Q 355.5 -100 711 400 Q 1066.5 900 1422 196" stroke-dasharray="64 3" opacity="0.30"></path><path d="M 0 147 Q 355.5 -100 711 400 Q 1066.5 900 1422 147" stroke-dasharray="30 97" opacity="0.48"></path><path d="M 0 98 Q 355.5 -100 711 400 Q 1066.5 900 1422 98" stroke-dasharray="69 121" opacity="0.58"></path></g></svg>