<svg width="40" height="40" viewBox="0 0 40 40" fill="none" xmlns="http://www.w3.org/2000/svg">
<mask id="path-1-outside-1_173_3" maskUnits="userSpaceOnUse" x="8" y="9" width="24" height="21" fill="black">
<rect fill="white" x="8" y="9" width="24" height="21"/>
<path d="M26.437 11.5226C27.9443 11.8034 29.0685 13.0717 29.1664 14.6018L29.8354 25.0647C29.9245 26.4592 28.8175 27.6392 27.4202 27.6392V27.6392C26.0835 27.6392 25 26.5557 25 25.2191V23.2015C25 22.0052 23.2803 21.8183 23.0233 22.9867L22.4296 25.6859C22.1787 26.8267 21.168 27.6392 20 27.6392V27.6392C18.832 27.6392 17.8213 26.8267 17.5704 25.6859L16.9767 22.9867C16.7197 21.8183 15 22.0052 15 23.2015V25.2191C15 26.5557 13.9165 27.6392 12.5798 27.6392V27.6392C11.1825 27.6392 10.0755 26.4592 10.1646 25.0647L10.8321 14.6265C10.9308 13.0821 12.0662 11.8023 13.5877 11.5201V11.5201C15.2075 11.2197 16.8078 12.1314 17.3754 13.6779L19.1078 18.3975C19.43 19.2752 20.6733 19.2701 20.9881 18.3897L22.6698 13.6875C23.2237 12.1388 24.8201 11.2215 26.437 11.5226V11.5226Z"/>
</mask>
<path d="M26.437 11.5226C27.9443 11.8034 29.0685 13.0717 29.1664 14.6018L29.8354 25.0647C29.9245 26.4592 28.8175 27.6392 27.4202 27.6392V27.6392C26.0835 27.6392 25 26.5557 25 25.2191V23.2015C25 22.0052 23.2803 21.8183 23.0233 22.9867L22.4296 25.6859C22.1787 26.8267 21.168 27.6392 20 27.6392V27.6392C18.832 27.6392 17.8213 26.8267 17.5704 25.6859L16.9767 22.9867C16.7197 21.8183 15 22.0052 15 23.2015V25.2191C15 26.5557 13.9165 27.6392 12.5798 27.6392V27.6392C11.1825 27.6392 10.0755 26.4592 10.1646 25.0647L10.8321 14.6265C10.9308 13.0821 12.0662 11.8023 13.5877 11.5201V11.5201C15.2075 11.2197 16.8078 12.1314 17.3754 13.6779L19.1078 18.3975C19.43 19.2752 20.6733 19.2701 20.9881 18.3897L22.6698 13.6875C23.2237 12.1388 24.8201 11.2215 26.437 11.5226V11.5226Z" stroke="#00A19D" stroke-width="4" mask="url(#path-1-outside-1_173_3)"/>
<circle cx="20" cy="20" r="19" stroke="#00A19D" stroke-width="2"/>
</svg>
