<svg width="24" height="20" viewBox="0 0 24 20" fill="none" xmlns="http://www.w3.org/2000/svg">
<mask id="path-1-outside-1_176_7" maskUnits="userSpaceOnUse" x="0" y="0" width="24" height="20" fill="black">
<rect fill="white" width="24" height="20"/>
<path d="M17.9319 2.49004C19.2727 2.73977 20.2991 3.82633 20.4721 5.17918L21.6746 14.5824C21.8456 15.919 20.7831 17.0927 19.4361 17.0552V17.0552C18.3106 17.0238 17.3913 16.146 17.3081 15.0231L17.0506 11.5461C16.9654 10.3967 15.3242 10.2795 15.0766 11.4052L14.2088 15.3509C13.9807 16.3879 13.0618 17.1266 12 17.1266V17.1266C10.9382 17.1266 10.0193 16.3879 9.79124 15.3509L8.92337 11.4052C8.67579 10.2795 7.03459 10.3967 6.94945 11.5461L6.69189 15.0231C6.60872 16.146 5.68941 17.0238 4.56387 17.0552V17.0552C3.21691 17.0927 2.15442 15.919 2.32535 14.5824L3.52507 5.20114C3.69972 3.83542 4.7364 2.73881 6.09016 2.48777V2.48777C7.60917 2.20608 9.10989 3.061 9.64223 4.51129L11.1024 8.48945C11.4246 9.36722 12.6679 9.36205 12.9828 8.48163L14.3997 4.51994C14.919 3.06783 16.4158 2.20766 17.9319 2.49004V2.49004Z"/>
</mask>
<path d="M17.9319 2.49004C19.2727 2.73977 20.2991 3.82633 20.4721 5.17918L21.6746 14.5824C21.8456 15.919 20.7831 17.0927 19.4361 17.0552V17.0552C18.3106 17.0238 17.3913 16.146 17.3081 15.0231L17.0506 11.5461C16.9654 10.3967 15.3242 10.2795 15.0766 11.4052L14.2088 15.3509C13.9807 16.3879 13.0618 17.1266 12 17.1266V17.1266C10.9382 17.1266 10.0193 16.3879 9.79124 15.3509L8.92337 11.4052C8.67579 10.2795 7.03459 10.3967 6.94945 11.5461L6.69189 15.0231C6.60872 16.146 5.68941 17.0238 4.56387 17.0552V17.0552C3.21691 17.0927 2.15442 15.919 2.32535 14.5824L3.52507 5.20114C3.69972 3.83542 4.7364 2.73881 6.09016 2.48777V2.48777C7.60917 2.20608 9.10989 3.061 9.64223 4.51129L11.1024 8.48945C11.4246 9.36722 12.6679 9.36205 12.9828 8.48163L14.3997 4.51994C14.919 3.06783 16.4158 2.20766 17.9319 2.49004V2.49004Z" fill="#AEE3E2"/>
<path d="M17.9319 2.49004C19.2727 2.73977 20.2991 3.82633 20.4721 5.17918L21.6746 14.5824C21.8456 15.919 20.7831 17.0927 19.4361 17.0552V17.0552C18.3106 17.0238 17.3913 16.146 17.3081 15.0231L17.0506 11.5461C16.9654 10.3967 15.3242 10.2795 15.0766 11.4052L14.2088 15.3509C13.9807 16.3879 13.0618 17.1266 12 17.1266V17.1266C10.9382 17.1266 10.0193 16.3879 9.79124 15.3509L8.92337 11.4052C8.67579 10.2795 7.03459 10.3967 6.94945 11.5461L6.69189 15.0231C6.60872 16.146 5.68941 17.0238 4.56387 17.0552V17.0552C3.21691 17.0927 2.15442 15.919 2.32535 14.5824L3.52507 5.20114C3.69972 3.83542 4.7364 2.73881 6.09016 2.48777V2.48777C7.60917 2.20608 9.10989 3.061 9.64223 4.51129L11.1024 8.48945C11.4246 9.36722 12.6679 9.36205 12.9828 8.48163L14.3997 4.51994C14.919 3.06783 16.4158 2.20766 17.9319 2.49004V2.49004Z" stroke="#00A19D" stroke-width="4" mask="url(#path-1-outside-1_176_7)"/>
</svg>
