<svg
  height="256px"
  width="256px"
  version="1.1"
  id="Layer_1"
  xmlns="http://www.w3.org/2000/svg"
  xmlns:xlink="http://www.w3.org/1999/xlink"
  viewBox="0 0 512 512"
  xml:space="preserve"
>
  <g id="SVGRepo_bgCarrier" stroke-width="0"></g>
  <g
    id="SVGRepo_tracerCarrier"
    stroke-linecap="round"
    stroke-linejoin="round"
  ></g>
  <g id="SVGRepo_iconCarrier">
    <g>
      <g>
        <style>
          path {
            fill: black;
          }
          @media (prefers-color-scheme: dark) {
            path {
              fill: white;
            }
          }
        </style>
        <path
          fill="#000000"
          d="M426.731,0H85.269C38.251,0,0,38.251,0,85.269v341.461C0,473.749,38.251,512,85.269,512h341.461 C473.749,512,512,473.749,512,426.731V85.269C512,38.251,473.749,0,426.731,0z M186.197,305.365 c8.064,8.576,7.68,22.08-0.896,30.165c-4.139,3.883-9.387,5.803-14.635,5.803c-5.675,0-11.328-2.24-15.531-6.699l-59.413-63.104 c-2.091-1.963-3.797-4.352-4.992-7.083c-3.371-7.829-1.835-16.896,3.989-23.104l60.416-64c8.107-8.555,21.589-8.96,30.165-0.853 c8.576,8.085,8.96,21.589,0.896,30.144l-46.549,49.301L186.197,305.365z M297.557,198.741l-42.667,128 c-2.965,8.939-11.285,14.592-20.224,14.592c-2.24,0-4.501-0.341-6.741-1.088c-11.179-3.733-17.216-15.829-13.483-26.987 l42.667-128c3.733-11.179,15.701-17.28,26.965-13.504C295.253,175.488,301.291,187.563,297.557,198.741z M420.416,271.083l-64,64 c-4.16,4.16-9.621,6.251-15.083,6.251c-5.461,0-10.923-2.091-15.083-6.251c-8.341-8.341-8.341-21.824,0-30.165L375.168,256 l-48.917-48.917c-8.341-8.341-8.341-21.824,0-30.165s21.824-8.341,30.165,0l64,64 C428.757,249.259,428.757,262.741,420.416,271.083z"
        ></path>
      </g>
    </g>
  </g>
</svg>
